HIERARCHY
ROOT Hips
{
	OFFSET 0.000000 0.000000 0.000000
	CHANNELS 6 Xposition Yposition Zposition Xrotation Yrotation Zrotation
	JOINT LeftUpLeg_virtual
	{
		OFFSET 0.000000 0.000000 0.000000
		CHANNELS 3 Xrotation Yrotation Zrotation
		JOINT LeftUpLeg
		{
			OFFSET 10.205400 -3.823500 0.155100
			CHANNELS 3 Xrotation Yrotation Zrotation
			JOINT LeftLeg
			{
				OFFSET 0.708757 -12.982077 0.567790
				CHANNELS 3 Xrotation Yrotation Zrotation
				JOINT LeftFoot
				{
					OFFSET -0.708756 -10.717838 -2.184338
					CHANNELS 3 Xrotation Yrotation Zrotation
					JOINT LeftToeBase
					{
						OFFSET 0.108149 -7.191104 7.560241
						CHANNELS 3 Xrotation Yrotation Zrotation
						JOINT LeftToe_End
						{
							OFFSET 0.070230 0.081724 4.490308
							CHANNELS 3 Xrotation Yrotation Zrotation
							End Site
							{
								OFFSET 0 0 0
							}
						}
					}
				}
			}
		}
	}
	JOINT RightUpLeg_virtual
	{
		OFFSET 0.000000 0.000000 0.000000
		CHANNELS 3 Xrotation Yrotation Zrotation
		JOINT RightUpLeg
		{
			OFFSET -10.205400 -3.823500 0.005500
			CHANNELS 3 Xrotation Yrotation Zrotation
			JOINT RightLeg
			{
				OFFSET -0.708756 -12.982134 0.610632
				CHANNELS 3 Xrotation Yrotation Zrotation
				JOINT RightFoot
				{
					OFFSET 0.708754 -10.717769 -1.945823
					CHANNELS 3 Xrotation Yrotation Zrotation
					JOINT RightToeBase
					{
						OFFSET -0.108140 -7.191069 7.372968
						CHANNELS 3 Xrotation Yrotation Zrotation
						JOINT RightToe_End
						{
							OFFSET -0.070227 0.081735 4.479403
							CHANNELS 3 Xrotation Yrotation Zrotation
							End Site
							{
								OFFSET 0 0 0
							}
						}
					}
				}
			}
		}
	}
	JOINT Spine_virtual
	{
		OFFSET 0.000000 0.000000 0.000000
		CHANNELS 3 Xrotation Yrotation Zrotation
		JOINT Spine
		{
			OFFSET 0.000000 6.876099 0.125700
			CHANNELS 3 Xrotation Yrotation Zrotation
			JOINT Spine1
			{
				OFFSET 0.000000 5.730043 0.104720
				CHANNELS 3 Xrotation Yrotation Zrotation
				JOINT Spine1_split
				{
					OFFSET 0.000000 5.730043 0.104720
					CHANNELS 3 Xrotation Yrotation Zrotation
					JOINT Spine2
					{
						OFFSET 0.000000 5.730043 0.104720
						CHANNELS 3 Xrotation Yrotation Zrotation
						JOINT Neck_virtual
						{
							OFFSET 0.000000 0.000000 0.000000
							CHANNELS 3 Xrotation Yrotation Zrotation
							JOINT Neck
							{
								OFFSET 0.000000 10.314075 0.188496
								CHANNELS 3 Xrotation Yrotation Zrotation
								JOINT Head
								{
									OFFSET 0.000000 7.643700 -2.377400
									CHANNELS 3 Xrotation Yrotation Zrotation
									JOINT HeadTop_End
									{
										OFFSET 0.000000 43.788605 -13.619600
										CHANNELS 3 Xrotation Yrotation Zrotation
										End Site
										{
											OFFSET 0 0 0
										}
									}
								}
							}
						}
						JOINT LeftShoulder_virtual
						{
							OFFSET 0.000000 0.000000 0.000000
							CHANNELS 3 Xrotation Yrotation Zrotation
							JOINT LeftShoulder
							{
								OFFSET 2.196100 4.412489 0.087492
								CHANNELS 3 Xrotation Yrotation Zrotation
								JOINT LeftShoulder_split
								{
									OFFSET 2.196100 4.412489 0.087492
									CHANNELS 3 Xrotation Yrotation Zrotation
									JOINT LeftArm
									{
										OFFSET 8.771219 -2.981674 -0.026999
										CHANNELS 3 Xrotation Yrotation Zrotation
										JOINT LeftForeArm
										{
											OFFSET 8.512804 0.000000 -0.000000
											CHANNELS 3 Xrotation Yrotation Zrotation
											JOINT LeftHand
											{
												OFFSET 18.484802 0.000000 -0.000000
												CHANNELS 3 Xrotation Yrotation Zrotation
												End Site
												{
													OFFSET 0 0 0
												}
											}
										}
									}
								}
							}
						}
						JOINT RightShoulder_virtual
						{
							OFFSET 0.000000 0.000000 0.000000
							CHANNELS 3 Xrotation Yrotation Zrotation
							JOINT RightShoulder
							{
								OFFSET -2.196100 4.412496 0.070690
								CHANNELS 3 Xrotation Yrotation Zrotation
								JOINT RightShoulder_split
								{
									OFFSET -2.196100 4.412496 0.070690
									CHANNELS 3 Xrotation Yrotation Zrotation
									JOINT RightArm
									{
										OFFSET -8.771282 -2.981682 -0.094208
										CHANNELS 3 Xrotation Yrotation Zrotation
										JOINT RightForeArm
										{
											OFFSET -8.494598 0.000000 0.000000
											CHANNELS 3 Xrotation Yrotation Zrotation
											JOINT RightHand
											{
												OFFSET -18.483803 0.000000 0.000001
												CHANNELS 3 Xrotation Yrotation Zrotation
												End Site
												{
													OFFSET 0 0 0
												}
											}
										}
									}
								}
							}
						}
					}
				}
			}
		}
	}
}
MOTION
Frames: 5
Frame Time: 0.03333333
5.557184 11.789402 173.296219 0.000000 0.000000 0.000000 45.852788 -50.019306 81.790846 -61.925090 -6.100418 28.480214 33.896900 -8.861359 2.976198 -5.129100 2.409212 -15.862044 2.070247 8.411598 -13.936578 0.000000 0.000000 0.000000 45.852788 -50.019306 81.790846 -53.189682 -15.721282 2.405859 138.252058 26.372832 1.445496 -8.934745 -2.782556 20.515848 1.527334 -1.828315 7.314213 0.000000 0.000000 0.000000 45.852788 -50.019306 81.790846 10.388953 -7.040620 -0.813223 20.840234 -13.780472 -0.747050 0.000000 0.000000 0.000000 0.000000 0.000000 0.000000 20.840227 -13.780441 -0.747041 10.280626 8.815887 -9.973437 -12.172844 29.112240 -19.518049 0.000000 0.000000 0.000000 20.840227 -13.780441 -0.747041 0.354771 -5.776054 -20.482527 0.000000 0.000000 0.000000 1.130277 6.952032 -62.462456 28.722544 -6.759068 -9.213452 0.000000 0.000000 0.000000 20.840227 -13.780441 -0.747041 0.290423 22.750824 11.346698 0.000000 0.000000 0.000000 -31.210761 1.257086 -8.512102 -16.825659 10.350077 1.399516 0.000000 0.000000 0.000000 
5.952944 11.825901 179.681152 0.000000 0.000000 0.000000 48.493103 -48.869915 78.576450 -65.039104 -8.286778 37.616041 23.736639 -13.483628 0.783084 5.924959 1.755384 -37.971877 1.360795 8.356195 -13.471503 0.000000 0.000000 0.000000 48.493103 -48.869915 78.576450 -48.353966 -8.571402 -26.047869 136.363730 48.304471 5.644669 0.634484 2.573166 6.044375 4.841396 -0.773419 10.737535 0.000000 0.000000 0.000000 48.493103 -48.869915 78.576450 10.267308 -5.405790 -0.353752 20.581457 -10.516354 -0.144616 0.000000 0.000000 0.000000 0.000000 0.000000 0.000000 20.581459 -10.516336 -0.144631 6.882641 9.770580 -6.782370 -14.592943 28.209549 -15.856190 0.000000 0.000000 0.000000 20.581459 -10.516336 -0.144631 0.362241 -5.563738 -21.430704 0.000000 0.000000 0.000000 0.286702 6.219480 -63.452027 31.648238 -6.430907 -10.299341 0.000000 0.000000 0.000000 20.581459 -10.516336 -0.144631 -0.050560 24.927846 12.864316 0.000000 0.000000 0.000000 -31.840071 -0.829621 -5.819328 -19.939274 5.531941 -2.665266 0.000000 0.000000 0.000000 
6.275473 11.938549 184.746567 0.000000 0.000000 0.000000 51.103212 -47.464378 75.196462 -77.680827 -13.662430 42.776621 37.001430 -15.110612 -2.651924 11.165145 -0.123614 -38.886992 0.652594 7.864873 -12.358803 0.000000 0.000000 0.000000 51.103212 -47.464378 75.196462 -52.941537 -5.863915 -41.983779 129.095835 57.280610 7.165143 17.208236 4.166675 11.911810 7.692881 1.043308 10.845716 0.000000 0.000000 0.000000 51.103212 -47.464378 75.196462 9.629828 -3.409338 -0.783894 19.278007 -6.757571 -0.819784 0.000000 0.000000 0.000000 0.000000 0.000000 0.000000 19.278002 -6.757577 -0.819776 2.631870 10.989362 -3.335735 -17.269370 27.297054 -11.811727 0.000000 0.000000 0.000000 19.278002 -6.757577 -0.819776 0.465105 -4.608224 -24.756055 0.000000 0.000000 0.000000 -0.485210 5.159808 -58.615393 35.989206 -7.811753 -10.600254 0.000000 0.000000 0.000000 19.278002 -6.757577 -0.819776 -0.396541 26.079971 14.675700 0.000000 0.000000 0.000000 -30.053491 -9.716203 4.642511 -31.232526 11.814323 -0.462039 0.000000 0.000000 0.000000 
6.646557 11.857382 188.814957 0.000000 0.000000 0.000000 47.236519 -48.243119 69.285774 -93.065576 -17.137838 40.169722 55.565706 -16.537023 -6.058202 14.981958 -1.677068 -30.050787 0.077857 7.163170 -11.017100 0.000000 0.000000 0.000000 47.236519 -48.243119 69.285774 -48.047099 -9.145117 -53.264059 122.257080 61.196637 8.592968 24.060777 5.207676 16.312346 5.339377 -1.511100 15.001255 0.000000 0.000000 0.000000 47.236519 -48.243119 69.285774 9.038951 -1.734657 -1.938405 18.069527 -4.089487 -2.543624 0.000000 0.000000 0.000000 0.000000 0.000000 0.000000 18.069552 -4.089493 -2.543612 -1.273845 11.977577 -0.348763 -19.370819 26.505671 -8.325429 0.000000 0.000000 0.000000 18.069552 -4.089493 -2.543612 0.682207 -2.993237 -27.468340 0.000000 0.000000 0.000000 0.233024 4.312532 -48.450080 39.748703 -9.175154 -10.853625 0.000000 0.000000 0.000000 18.069552 -4.089493 -2.543612 -0.497437 24.275648 15.686288 0.000000 0.000000 0.000000 -23.816543 -20.840902 23.243836 -42.950176 27.846632 6.379460 0.000000 0.000000 0.000000 
7.067036 11.694672 192.300842 0.000000 0.000000 0.000000 37.019813 -49.075941 57.481117 -107.587624 -13.899753 34.275638 66.307128 -15.723201 -6.731314 23.448413 -3.149849 -20.814730 -1.194675 7.247438 -10.539383 0.000000 0.000000 0.000000 37.019813 -49.075941 57.481117 -37.374857 -18.467827 -61.805747 112.761396 63.493609 10.311064 26.653394 5.875502 21.596198 11.376027 -4.862399 7.551629 0.000000 0.000000 0.000000 37.019813 -49.075941 57.481117 8.666585 -0.287414 -2.894452 17.311695 -3.101784 -3.473910 0.000000 0.000000 0.000000 0.000000 0.000000 0.000000 17.311697 -3.101794 -3.473907 -4.090725 12.544757 1.699334 -20.565940 26.100946 -5.887498 0.000000 0.000000 0.000000 17.311697 -3.101794 -3.473907 0.861426 -1.305030 -25.783797 0.000000 0.000000 0.000000 2.804954 4.771300 -37.156092 40.677175 -9.770788 -11.170000 0.000000 0.000000 0.000000 17.311697 -3.101794 -3.473907 -0.185178 19.827208 14.579056 0.000000 0.000000 0.000000 -11.911478 -27.133560 45.621651 -41.763946 47.160656 10.336983 0.000000 0.000000 0.000000 
